<svg xmlns="http://www.w3.org/2000/svg" width="1931" height="32">
    <path fill="#FFF" fill-rule="evenodd" d="M1893.408 31.996l-35.213-29.975-35.213 29.975-36.165-30.785-36.164 30.785-36.641-31.19-36.64 31.19-35.213-29.975-35.213 29.975-36.165-30.785-36.165 30.785-35.688-30.38-35.689 30.38-35.213-29.975-35.213 29.975-36.164-30.785-36.165 30.785-33.785-28.76-33.786 28.76L1217.7 2.021l-35.213 29.975-36.164-30.785-36.165 30.785-36.64-31.19-36.641 31.19-35.213-29.975-35.213 29.975-36.164-30.785-36.165 30.785-35.688-30.38-35.689 30.38-35.213-29.975-35.213 29.975-36.165-30.785-36.164 30.785-34.737-29.57-34.738 29.57-35.212-29.975-35.213 29.975-36.165-30.785-36.165 30.785L431.12.806l-36.641 31.19-35.212-29.975-35.213 29.975-36.165-30.785-36.164 30.785-35.689-30.38-35.689 30.38-35.213-29.975-35.213 29.975L73.757 1.211 37.592 31.996.009.003H1930.991l-37.583 31.993z"/>
</svg>
